<svg xmlns="http://www.w3.org/2000/svg" version="1.1" xmlns:xlink="http://www.w3.org/1999/xlink" xmlns:svgjs="http://svgjs.dev/svgjs" width="1500" height="939" viewBox="0 0 1500 939"><g transform="matrix(1,0,0,1,-0.9090909090909918,-1.5145161290323017)"><svg viewBox="0 0 396 248" data-background-color="#ffffff" preserveAspectRatio="xMidYMid meet" height="939" width="1500" xmlns="http://www.w3.org/2000/svg" xmlns:xlink="http://www.w3.org/1999/xlink"><g id="tight-bounds" transform="matrix(1,0,0,1,0.2400000000000091,0.4000000000000057)"><svg viewBox="0 0 395.52 247.2" height="247.2" width="395.52"><g><svg></svg></g><g><svg viewBox="0 0 395.52 247.2" height="247.2" width="395.52"><mask id="d2eb50d0-456b-46a7-9d86-9411ec90a9e4"><rect width="640" height="400" fill="white"></rect><g transform="matrix(1,0,0,1,39.55199999999999,104.18022506963788)"><svg viewBox="0 0 316.416 38.839549860724226" height="38.839549860724226" width="316.416"><g><svg viewBox="0 0 316.416 38.839549860724226" height="38.839549860724226" width="316.416"><g><svg viewBox="0 0 316.416 38.839549860724226" height="38.839549860724226" width="316.416"><g><svg viewBox="0 0 316.416 38.839549860724226" height="38.839549860724226" width="316.416"><g id="SvgjsG1410"><svg viewBox="0 0 316.416 38.839549860724226" height="38.839549860724226" width="316.416" id="SvgjsSvg1409"><g><svg viewBox="0 0 316.416 38.839549860724226" height="38.839549860724226" width="316.416"><g transform="matrix(1,0,0,1,0,0)"><svg width="316.416" viewBox="1.2000000000000002 -32.55 270.22 34.05" height="38.839549860724226" data-palette-color="#c9378b"><path d="M25.15-31.05L25.15 0 16.65 0 16.65-11.75 10.8-11.75 10.8 0 2.2 0 2.2-31.05 10.8-31.05 10.8-18.85 16.65-18.85 16.65-31.05 25.15-31.05ZM46.65-7L46.15 0 29.35 0 29.35-31.05 46.65-31.05 46.15-23.4 37.9-23.4 37.9-18.75 45.05-18.75 45.05-12.15 37.9-12.15 37.9-7 46.65-7ZM65.84-6.95L65.34 0 49.55 0 49.55-31.05 58.1-31.05 58.1-6.95 65.84-6.95ZM78.34-10.15L78.34-10.15 76.04-10.15 76.04 0 67.64 0 67.64-31.05 77.79-31.05Q83.14-31.05 85.74-28.6 88.34-26.15 88.34-20.55 88.34-14.95 85.89-12.55 83.44-10.15 78.34-10.15ZM79.29-16.9Q79.74-17.75 79.74-19.95 79.74-22.15 79.24-23.05 78.74-23.95 77.24-23.95L77.24-23.95 76.04-23.95 76.04-16.05 77.44-16.05Q78.84-16.05 79.29-16.9ZM99.84-31.05L99.84 0 91.34 0 91.34-31.05 99.84-31.05ZM127.39-31.05L127.39 0 119.19 0 112.74-14.45 112.34-14.45 112.34 0 104.74 0 104.74-31.05 113.19-31.05 119.34-16.15 119.74-16.15 119.74-31.05 127.39-31.05ZM151.84-29.95L150.49-21.8Q145.69-23.25 143.46-23.25 141.24-23.25 140.41-21.3 139.59-19.35 139.59-15.13 139.59-10.9 140.36-8.97 141.14-7.05 143.54-7.05L143.54-7.05Q144.24-7.05 146.24-7.45L146.24-7.45 146.24-11.25 143.99-11.25 143.99-17.15 153.54-17.15 153.54 0 147.64 0 146.84-1.6 146.64-1.6Q145.79-0.9 145.29-0.55L145.29-0.55Q143.89 0.5 141.34 0.5L141.34 0.5Q130.89 0.5 130.89-15.3L130.89-15.3Q130.89-23.2 133.64-27.38 136.39-31.55 142.89-31.55L142.89-31.55Q148.09-31.55 151.84-29.95L151.84-29.95ZM191.18-31.05L191.18 0 182.68 0 182.68-11.75 176.83-11.75 176.83 0 168.23 0 168.23-31.05 176.83-31.05 176.83-18.85 182.68-18.85 182.68-31.05 191.18-31.05ZM211.98-31.05L217.68 0 209.33 0 208.38-4.9 202.48-4.9 201.53 0 193.58 0 199.28-31.05 211.98-31.05ZM203.58-10.75L207.43-10.75 205.68-21.85 205.33-21.85 203.58-10.75ZM242.93-31.05L242.93 0 234.73 0 228.28-14.45 227.88-14.45 227.88 0 220.28 0 220.28-31.05 228.73-31.05 234.88-16.15 235.28-16.15 235.28-31.05 242.93-31.05ZM270.42-16.2L270.42-16.2Q270.42 0 257.62 0L257.62 0 247.32 0 247.32-31.05 257.82-31.05Q264.67-31.05 267.55-27.23 270.42-23.4 270.42-16.2ZM257.47-7.2Q260.12-7.2 260.9-9.08 261.67-10.95 261.67-15.38 261.67-19.8 260.85-21.65 260.02-23.5 257.32-23.5L257.32-23.5 255.82-23.5 255.82-7.2 257.47-7.2Z" opacity="1" transform="matrix(1,0,0,1,0,0)" fill="black" class="wordmark-text-0" id="SvgjsPath1408" stroke-width="1" stroke="black" stroke-linejoin="round"></path></svg></g></svg></g></svg></g></svg></g><g></g></svg></g></svg></g></svg></g></mask><g transform="matrix(1,0,0,1,39.55199999999999,104.18022506963788)"><svg viewBox="0 0 316.416 38.839549860724226" height="38.839549860724226" width="316.416"><g><svg viewBox="0 0 316.416 38.839549860724226" height="38.839549860724226" width="316.416"><g><svg viewBox="0 0 316.416 38.839549860724226" height="38.839549860724226" width="316.416"><g><svg viewBox="0 0 316.416 38.839549860724226" height="38.839549860724226" width="316.416"><g id="textblocktransform"><svg viewBox="0 0 316.416 38.839549860724226" height="38.839549860724226" width="316.416" id="textblock"><g><svg viewBox="0 0 316.416 38.839549860724226" height="38.839549860724226" width="316.416"><g transform="matrix(1,0,0,1,0,0)"><svg width="316.416" viewBox="1.2000000000000002 -32.55 270.22 34.05" height="38.839549860724226" data-palette-color="#c9378b"><path d="M25.15-31.05L25.15 0 16.65 0 16.65-11.75 10.8-11.75 10.8 0 2.2 0 2.2-31.05 10.8-31.05 10.8-18.85 16.65-18.85 16.65-31.05 25.15-31.05ZM46.65-7L46.15 0 29.35 0 29.35-31.05 46.65-31.05 46.15-23.4 37.9-23.4 37.9-18.75 45.05-18.75 45.05-12.15 37.9-12.15 37.9-7 46.65-7ZM65.84-6.95L65.34 0 49.55 0 49.55-31.05 58.1-31.05 58.1-6.95 65.84-6.95ZM78.34-10.15L78.34-10.15 76.04-10.15 76.04 0 67.64 0 67.64-31.05 77.79-31.05Q83.14-31.05 85.74-28.6 88.34-26.15 88.34-20.55 88.34-14.95 85.89-12.55 83.44-10.15 78.34-10.15ZM79.29-16.9Q79.74-17.75 79.74-19.95 79.74-22.15 79.24-23.05 78.74-23.95 77.24-23.95L77.24-23.95 76.04-23.95 76.04-16.05 77.44-16.05Q78.84-16.05 79.29-16.9ZM99.84-31.05L99.84 0 91.34 0 91.34-31.05 99.84-31.05ZM127.39-31.05L127.39 0 119.19 0 112.74-14.45 112.34-14.45 112.34 0 104.74 0 104.74-31.05 113.19-31.05 119.34-16.15 119.74-16.15 119.74-31.05 127.39-31.05ZM151.84-29.95L150.49-21.8Q145.69-23.25 143.46-23.25 141.24-23.25 140.41-21.3 139.59-19.35 139.59-15.13 139.59-10.9 140.36-8.97 141.14-7.05 143.54-7.05L143.54-7.05Q144.24-7.05 146.24-7.45L146.24-7.45 146.24-11.25 143.99-11.25 143.99-17.15 153.54-17.15 153.54 0 147.64 0 146.84-1.6 146.64-1.6Q145.79-0.9 145.29-0.55L145.29-0.55Q143.89 0.5 141.34 0.5L141.34 0.5Q130.89 0.5 130.89-15.3L130.89-15.3Q130.89-23.2 133.64-27.38 136.39-31.55 142.89-31.55L142.89-31.55Q148.09-31.55 151.84-29.95L151.84-29.95ZM191.18-31.05L191.18 0 182.68 0 182.68-11.75 176.83-11.75 176.83 0 168.23 0 168.23-31.05 176.83-31.05 176.83-18.85 182.68-18.85 182.68-31.05 191.18-31.05ZM211.98-31.05L217.68 0 209.33 0 208.38-4.9 202.48-4.9 201.53 0 193.58 0 199.28-31.05 211.98-31.05ZM203.58-10.75L207.43-10.75 205.68-21.85 205.33-21.85 203.58-10.75ZM242.93-31.05L242.93 0 234.73 0 228.28-14.45 227.88-14.45 227.88 0 220.28 0 220.28-31.05 228.73-31.05 234.88-16.15 235.28-16.15 235.28-31.05 242.93-31.05ZM270.42-16.2L270.42-16.2Q270.42 0 257.62 0L257.62 0 247.32 0 247.32-31.05 257.82-31.05Q264.67-31.05 267.55-27.23 270.42-23.4 270.42-16.2ZM257.47-7.2Q260.12-7.2 260.9-9.08 261.67-10.95 261.67-15.38 261.67-19.8 260.85-21.65 260.02-23.5 257.32-23.5L257.32-23.5 255.82-23.5 255.82-7.2 257.47-7.2Z" opacity="1" transform="matrix(1,0,0,1,0,0)" fill="#c9378b" class="wordmark-text-0" data-fill-palette-color="primary" id="text-0"></path></svg></g></svg></g></svg></g></svg></g><g></g></svg></g></svg></g></svg></g><g mask="url(#d2eb50d0-456b-46a7-9d86-9411ec90a9e4)"><g transform="matrix(2.7461802690412873, 0, 0, 2.7461802690412873, 75.16603184765192, 1)"><svg xmlns="http://www.w3.org/2000/svg" xmlns:xlink="http://www.w3.org/1999/xlink" version="1.1" x="0" y="0" viewBox="0.35833249999999595 0.3587183000000067 89.28326340000001 89.2876563" enable-background="new 0 0 90 90" xml:space="preserve" height="89.2876563" width="89.28326340000001" class="icon-none" data-fill-palette-color="accent" id="none"><polygon points="57.928,58.169 57.875,76.027 45.397,63.548 45.397,45.639 " fill="#f6caec" data-fill-palette-color="accent"></polygon><polygon points="76.027,57.875 58.475,57.927 45.826,45.279 63.432,45.279 " fill="#f6caec" data-fill-palette-color="accent"></polygon><polygon points="76.027,32.125 63.432,44.721 45.707,44.721 58.355,32.073 " fill="#f6caec" data-fill-palette-color="accent"></polygon><polygon points="44.838,45.59 44.838,63.314 32.125,76.027 32.074,58.355 " fill="#f6caec" data-fill-palette-color="accent"></polygon><polygon points="57.928,31.712 45.397,44.243 45.397,26.452 57.875,13.974 " fill="#f6caec" data-fill-palette-color="accent"></polygon><polygon points="44.838,26.687 44.838,44.291 32.074,31.526 32.125,13.974 " fill="#f6caec" data-fill-palette-color="accent"></polygon><polygon points="44.479,44.721 26.569,44.721 13.974,32.125 31.832,32.073 " fill="#f6caec" data-fill-palette-color="accent"></polygon><polygon points="44.36,45.279 31.712,57.927 13.974,57.875 26.569,45.279 " fill="#f6caec" data-fill-palette-color="accent"></polygon><rect x="58.48" y="58.48" width="18.049" height="18.049" fill="#f6caec" data-fill-palette-color="accent"></rect><polygon points="76.527,13.474 76.527,31.516 58.914,31.516 58.912,31.518 58.484,31.516 58.484,13.474 " fill="#f6caec" data-fill-palette-color="accent"></polygon><polygon points="31.518,30.971 31.516,31.516 13.474,31.516 13.474,13.474 31.516,13.474 31.516,30.968 " fill="#f6caec" data-fill-palette-color="accent"></polygon><rect x="13.471" y="58.48" width="18.05" height="18.049" fill="#f6caec" data-fill-palette-color="accent"></rect><rect x="67.864" y="35.981" transform="matrix(0.7071 -0.7071 0.7071 0.7071 -9.3022 67.5465)" width="18.042" height="18.042" fill="#f6caec" data-fill-palette-color="accent"></rect><rect x="35.979" y="4.094" transform="matrix(0.7071 -0.7071 0.7071 0.7071 3.9068 35.6621)" width="18.042" height="18.042" fill="#f6caec" data-fill-palette-color="accent"></rect><rect x="4.095" y="35.98" transform="matrix(0.7071 -0.7071 0.7071 0.7071 -27.9787 22.4536)" width="18.041" height="18.041" fill="#f6caec" data-fill-palette-color="accent"></rect><rect x="35.98" y="67.865" transform="matrix(0.7071 -0.7071 0.7071 0.7071 -41.1877 54.3437)" width="18.04" height="18.041" fill="#f6caec" data-fill-palette-color="accent"></rect></svg></g></g></svg></g><defs></defs></svg><rect width="395.52" height="247.2" fill="none" stroke="none" visibility="hidden"></rect></g></svg></g></svg>